<svg xmlns="http://www.w3.org/2000/svg" width="600" height="1200" viewBox="0 0 96 192"><path fill="#fff" d="M0,0h96v192H0z"/><g transform="rotate(90,-12,60)"><g stroke="#000" stroke-width="4"><path transform="rotate(33.69006752598)" d="M-50-12v24m6 0v-24m6 0v24m76 0V1m0-2v-11m6 0v11m0 2v11m6 0V1m0-2v-11"/><path transform="rotate(-33.69006752598)" d="M-50-12v24m6 0V1m0-2v-11m6 0v24m76 0V1m0-2v-11m6 0v24m6 0V1m0-2v-11"/></g><g transform="rotate(33.69006752598)"><path fill="#cd2e3a" d="M12 0a18 18 0 11-36 0 24 24 0 1148 0"/><path fill="#0047a0" d="M0 0a12 12 0 1124 0 24 24 0 11-48 0 12 12 0 1024 0"/></g></g></svg>